# xmcd
#
# Track frame offsets: 
#        150
#        11400
#        29710
#        48455
#        65027
#        89527
#        105975
#        122105
#        132465
#        150635
#        164335
#        178065
#        196159
#        211925
#
# Disc length: 3009 seconds
#
# Revision: 0
# Processed by: cddbd v1.5.2PL0 Copyright (c) Steve Scherf et al.
# Submitted via: ExactAudioCopy v0.95b4
#
DISCID=c30bbf0e
DTITLE=Henry Cooper - Baby Please
DYEAR=1900
DGENRE=Blues
TTITLE0=Bad Times In Season
TTITLE1=Baby Please
TTITLE2=Don't Want To Move
TTITLE3=No Way
TTITLE4=Million Dallor Hooker
TTITLE5=Automatic Trouble
TTITLE6=Getting Closer
TTITLE7=Dynasonic Boogie
TTITLE8=Don't You Get Tired Of Treating Me Bad
TTITLE9=If  You Don't Love Me
TTITLE10=Dis Pas CA
TTITLE11=Hard Head
TTITLE12=Darkness
TTITLE13=Burn It Down
EXTD=
EXTT0=
EXTT1=
EXTT2=
EXTT3=
EXTT4=
EXTT5=
EXTT6=
EXTT7=
EXTT8=
EXTT9=
EXTT10=
EXTT11=
EXTT12=
EXTT13=
PLAYORDER=
